<svg id="Layer_1" data-name="Layer 1" xmlns="http://www.w3.org/2000/svg" viewBox="0 0 240 240"><defs><style>.cls-1{fill:none;stroke:#fff;stroke-linecap:round;stroke-linejoin:round;stroke-width:3px;stroke-dasharray:117 14 43 10 2 6;}.cls-2{fill:#eee;}.cls-3{fill:#ccc;}.cls-4{fill:#00f2d2;}</style></defs><path class="cls-1" d="M65,119C52.09,108.31,47,91.86,52,78.44,56.09,67.55,66.49,59.7,77,57.88c16.28-2.83,21.7,11,39.81,9.9,13.77-.83,32.15-9,35-24.38,2.18-11.52-4.8-24.26-16.74-32.41"/><rect class="cls-2" x="3.97" y="93.84" width="232.05" height="84.65" rx="5" transform="translate(-52.01 78.24) rotate(-30)"/><rect class="cls-3" x="11.84" y="161.77" width="14.36" height="14.36" rx="3" transform="translate(-81.93 32.14) rotate(-30)"/><rect class="cls-3" x="28.34" y="152.24" width="14.36" height="14.36" rx="3" transform="translate(-74.95 39.12) rotate(-30)"/><rect class="cls-3" x="44.84" y="142.72" width="14.36" height="14.36" rx="3" transform="translate(-67.98 46.09) rotate(-30)"/><rect class="cls-3" x="61.34" y="133.19" width="14.36" height="14.36" rx="3" transform="translate(-61.01 53.06) rotate(-30)"/><rect class="cls-3" x="77.84" y="123.66" width="14.36" height="14.36" rx="3" transform="translate(-54.03 60.04) rotate(-30)"/><rect class="cls-3" x="94.33" y="114.14" width="14.36" height="14.36" rx="3" transform="translate(-47.06 67.01) rotate(-30)"/><rect class="cls-3" x="110.83" y="104.61" width="14.36" height="14.36" rx="3" transform="translate(-40.09 73.98) rotate(-30)"/><rect class="cls-3" x="127.33" y="95.09" width="14.36" height="14.36" rx="3" transform="translate(-33.11 80.96) rotate(-30)"/><rect class="cls-3" x="143.83" y="85.56" width="14.36" height="14.36" rx="3" transform="translate(-26.14 87.93) rotate(-30)"/><rect class="cls-3" x="160.33" y="76.03" width="14.36" height="14.36" rx="3" transform="translate(-19.17 94.9) rotate(-30)"/><rect class="cls-3" x="175.65" y="62.11" width="31.97" height="14.36" rx="3" transform="translate(-8.97 105.1) rotate(-30)"/><rect class="cls-3" x="87.15" y="153.08" width="97.16" height="14.36" rx="3" transform="translate(-61.94 89.34) rotate(-30)"/><rect class="cls-3" x="201.07" y="106.13" width="31.97" height="14.36" rx="3" transform="translate(-27.57 123.71) rotate(-30)"/><rect class="cls-3" x="183.32" y="121.45" width="14.36" height="14.36" rx="3" transform="translate(-38.79 112.49) rotate(-30)"/><rect class="cls-3" x="35.89" y="200.7" width="34.69" height="14.36" rx="3" transform="translate(-96.81 54.47) rotate(-30)"/><rect class="cls-3" x="73.78" y="184.7" width="14.36" height="14.36" rx="3" transform="translate(-85.09 66.19) rotate(-30)"/><rect class="cls-3" x="41.91" y="163.97" width="14.36" height="14.36" rx="3" transform="translate(-79 47.48) rotate(-30)"/><rect class="cls-3" x="58.69" y="154.28" width="14.36" height="14.36" rx="3" transform="translate(-71.91 54.57) rotate(-30)"/><rect class="cls-3" x="75.46" y="144.6" width="14.36" height="14.36" rx="3" transform="translate(-64.82 61.65) rotate(-30)"/><rect class="cls-3" x="92.23" y="134.92" width="14.36" height="14.36" rx="3" transform="translate(-57.73 68.74) rotate(-30)"/><rect class="cls-3" x="109.01" y="125.23" width="14.36" height="14.36" rx="3" transform="translate(-50.64 75.83) rotate(-30)"/><rect class="cls-3" x="125.78" y="115.55" width="14.36" height="14.36" rx="3" transform="translate(-43.55 82.92) rotate(-30)"/><rect class="cls-3" x="142.55" y="105.87" width="14.36" height="14.36" rx="3" transform="translate(-36.46 90.01) rotate(-30)"/><rect class="cls-3" x="159.32" y="96.18" width="14.36" height="14.36" rx="3" transform="translate(-29.37 97.1) rotate(-30)"/><rect class="cls-3" x="176.42" y="83.97" width="22.46" height="14.36" rx="3" transform="matrix(0.87, -0.5, 0.5, 0.87, -20.44, 106.04)"/><rect class="cls-3" x="19.94" y="175.05" width="19.94" height="14.36" rx="3" transform="translate(-87.11 39.37) rotate(-30)"/><rect class="cls-3" x="58.05" y="174.21" width="14.36" height="14.36" rx="3" transform="translate(-81.96 56.92) rotate(-30)"/><rect class="cls-3" x="74.96" y="164.45" width="14.36" height="14.36" rx="3" transform="translate(-74.81 64.07) rotate(-30)"/><rect class="cls-3" x="91.88" y="154.69" width="14.36" height="14.36" rx="3" transform="translate(-67.66 71.21) rotate(-30)"/><rect class="cls-3" x="108.79" y="144.92" width="14.36" height="14.36" rx="3" transform="translate(-60.51 78.36) rotate(-30)"/><rect class="cls-3" x="125.7" y="135.16" width="14.36" height="14.36" rx="3" transform="translate(-53.37 85.51) rotate(-30)"/><rect class="cls-3" x="142.61" y="125.39" width="14.36" height="14.36" rx="3" transform="translate(-46.22 92.66) rotate(-30)"/><rect class="cls-3" x="159.53" y="115.63" width="14.36" height="14.36" rx="3" transform="translate(-39.07 99.81) rotate(-30)"/><rect class="cls-3" x="175.84" y="103.62" width="23.31" height="14.36" rx="3" transform="translate(-30.28 108.59) rotate(-30)"/><path class="cls-4" d="M207.77,71.25l-7.24,4.18a3,3,0,0,0-1.1,4.1l7,12.07-6.21,3.58a3,3,0,0,0-1.09,4.1l4.18,7.24a3,3,0,0,0,4.09,1.1l8.8-5.08h0l7.24-4.18a3,3,0,0,0,1.1-4.1L211.86,72.35A3,3,0,0,0,207.77,71.25Z"/><rect class="cls-3" x="27.83" y="187.55" width="28.63" height="14.36" rx="3" transform="translate(-91.72 47.16) rotate(-30)"/></svg>