<svg xmlns="http://www.w3.org/2000/svg" xmlns:xlink="http://www.w3.org/1999/xlink" viewBox="0 0 240 400"><defs><linearGradient id="a" x1="120.28" y1="373.25" x2="120.28" y2="73.25" gradientUnits="userSpaceOnUse"><stop offset="0.9" stop-color="#eee"/><stop offset="1" stop-color="#ddd"/></linearGradient><linearGradient id="b" x1="120.28" y1="388.25" x2="120.28" y2="373.25" gradientUnits="userSpaceOnUse"><stop offset="0" stop-color="#eee"/><stop offset="1" stop-color="#ddd"/></linearGradient><linearGradient id="c" x1="120.28" y1="35.75" x2="120.28" y2="11.75" gradientUnits="userSpaceOnUse"><stop offset="0" stop-color="#ddd"/><stop offset="0.6" stop-color="#eee"/></linearGradient><linearGradient id="d" x1="42.85" y1="120.88" x2="197.71" y2="275.74" gradientUnits="userSpaceOnUse"><stop offset="0" stop-color="#88e6ff"/><stop offset="1" stop-color="#a288ff"/></linearGradient></defs><path d="M210.28,373.25h-180l-15-300h210Z" style="fill:url(#a)"/><rect x="0.28" y="35.75" width="240" height="37.5" rx="5" style="fill:#eee"/><path d="M45.28,373.25h150a0,0,0,0,1,0,0v13a2,2,0,0,1-2,2h-146a2,2,0,0,1-2-2v-13A0,0,0,0,1,45.28,373.25Z" style="fill:url(#b)"/><path d="M208.78,11.75h-177a19.22,19.22,0,0,0-5.3,2.2C16.41,20,15.42,33.48,15.28,35.75h210c-.13-2.27-1.13-15.73-11.2-21.8A19.22,19.22,0,0,0,208.78,11.75Z" style="fill:url(#c)"/><path d="M216.07,257.37l5.63-112.5H18.86l5.63,112.5Z" style="fill:url(#d)"/><polyline points="99.53 186.24 116.5 183.91 116.5 200.31 99.53 200.31" style="fill:#f8a"/><polyline points="118.55 183.58 141.03 180.3 141.03 200.17 118.55 200.17" style="fill:#f8a"/><polyline points="99.53 202.04 116.5 202.04 116.5 218.49 99.53 216.12" style="fill:#f8a"/><polyline points="118.55 202.26 141.03 202.26 141.03 221.95 118.55 218.76" style="fill:#f8a"/></svg>