<svg xmlns="http://www.w3.org/2000/svg" xmlns:xlink="http://www.w3.org/1999/xlink" viewBox="0 0 240 400"><defs><linearGradient id="a" x1="123.33" y1="315.5" x2="123.33" y2="115.5" gradientUnits="userSpaceOnUse"><stop offset="0.9" stop-color="#eee"/><stop offset="1" stop-color="#ddd"/></linearGradient><linearGradient id="b" x1="123.33" y1="325.5" x2="123.33" y2="315.5" gradientUnits="userSpaceOnUse"><stop offset="0" stop-color="#eee"/><stop offset="1" stop-color="#ddd"/></linearGradient><linearGradient id="c" x1="123.33" y1="90.5" x2="123.33" y2="74.5" gradientUnits="userSpaceOnUse"><stop offset="0" stop-color="#ddd"/><stop offset="0.6" stop-color="#eee"/></linearGradient><linearGradient id="d" x1="71.71" y1="147.25" x2="174.95" y2="250.49" gradientUnits="userSpaceOnUse"><stop offset="0" stop-color="#88e6ff"/><stop offset="1" stop-color="#a288ff"/></linearGradient></defs><path d="M183.33,315.5h-120q-5-100-10-200h140Q188.33,215.51,183.33,315.5Z" style="fill:url(#a)"/><rect x="43.33" y="90.5" width="160" height="25" rx="5" style="fill:#eee"/><path d="M73.33,315.5h100a0,0,0,0,1,0,0v8a2,2,0,0,1-2,2h-96a2,2,0,0,1-2-2v-8A0,0,0,0,1,73.33,315.5Z" style="fill:url(#b)"/><path d="M182.33,74.5h-118A13.31,13.31,0,0,0,60.8,76C54.09,80,53.42,89,53.33,90.5h140C193.24,89,192.58,80,185.87,76A13.24,13.24,0,0,0,182.33,74.5Z" style="fill:url(#c)"/><path d="M187.2,238.25l3.75-75H55.72l3.75,75Z" style="fill:url(#d)"/><polyline points="109.5 190.83 120.81 189.28 120.81 200.21 109.5 200.21" style="fill:#f8a"/><polyline points="122.18 189.05 137.17 186.87 137.17 200.11 122.18 200.11" style="fill:#f8a"/><polyline points="109.5 201.36 120.81 201.36 120.81 212.33 109.5 210.75" style="fill:#f8a"/><polyline points="122.18 201.51 137.17 201.51 137.17 214.63 122.18 212.51" style="fill:#f8a"/></svg>