<svg xmlns="http://www.w3.org/2000/svg" xmlns:xlink="http://www.w3.org/1999/xlink" viewBox="0 0 136.5 228"><defs><linearGradient id="a" x1="-1835.57" y1="12.59" x2="-1771.21" y2="124.06" gradientTransform="matrix(-1, 0, 0, 1, -1706.19, 0)" gradientUnits="userSpaceOnUse"><stop offset="0" stop-color="#8cc63f"/><stop offset="1" stop-color="#006837"/></linearGradient><linearGradient id="b" x1="14.02" y1="49.94" x2="57.18" y2="124.69" gradientTransform="matrix(1, 0, 0, 1, 0, 0)" xlink:href="#a"/><linearGradient id="c" x1="-1563.92" y1="65.5" x2="-1529.51" y2="125.09" gradientTransform="matrix(-1, 0, 0, 1, -1439.63, 0)" xlink:href="#a"/><linearGradient id="d" x1="-250.46" y1="5.07" x2="-181.16" y2="125.09" gradientTransform="translate(270)" xlink:href="#a"/></defs><path d="M81.9,36.69C74.69,51,66.93,66.82,64.47,89.26a129.07,129.07,0,0,0,1,35H98.75a51.86,51.86,0,0,0,6.65-11.38c7.22-17,2.8-32.57.72-44.79-6.81-39.93,7.52-66,1.54-68C101.34-2,86.46,27.62,81.9,36.69Z" style="fill:url(#a)"/><path d="M44.17,64.25c3.78,3.22,18,15.39,19.11,35.61a47.85,47.85,0,0,1-5.43,24.44H32A23.53,23.53,0,0,1,26.79,117c-3.82-8.66-.54-16.43.35-22.69C30.18,72.74,6.43,57.56,10.81,52,14.3,47.61,32.14,54,44.17,64.25Z" style="fill:url(#b)"/><path d="M87.57,99.05a44.68,44.68,0,0,0,.93,25.25h19.68a31.38,31.38,0,0,0,6.18-9.28c3.6-8.38,1.51-14.2,2.06-22.67,1.09-16.72,11.14-23.95,8.77-26.28C121.71,62.65,94.1,75,87.57,99.05Z" style="fill:url(#c)"/><path d="M67.47,35.66c16.79,19.63,22,41.3,23.7,53.6a107.42,107.42,0,0,1-1,35H56.89a38.14,38.14,0,0,1-6.65-11.38c-4.5-12.27-1.12-23.69-.29-27.27C57.19,54.44,11.73,12.82,18.51,5.77,23.17.93,49.9,15.13,67.47,35.66Z" style="fill:url(#d)"/><path d="M136.36,143.21c-.31-3.4-1-10.85-6.05-16.59a21.33,21.33,0,0,0-14.62-6.87H20.81a21.32,21.32,0,0,0-14.62,6.87C1.13,132.36.45,139.81.14,143.21-1.79,164.15,17.07,205.89,38,228H98.47C119.43,205.89,138.29,164.15,136.36,143.21Z" style="fill:#ddd"/></svg>